<svg id="Layer_1" data-name="Layer 1" xmlns="http://www.w3.org/2000/svg" viewBox="0 0 64 64"><defs><style>.cls-1{fill:none;stroke:#38383b;stroke-linecap:round;stroke-linejoin:round;stroke-width:1.5px;}</style></defs><title>icon-secure-payment</title><path class="cls-1" d="M33.25,45.25H14.75a4,4,0,0,1-4-4V18.75a4,4,0,0,1,4-4h35.5a4,4,0,0,1,4,4v15.5"/><line class="cls-1" x1="10.75" y1="22.5" x2="53.75" y2="22.5"/><line class="cls-1" x1="10.75" y1="29.5" x2="53.75" y2="29.5"/><line class="cls-1" x1="34.75" y1="25.5" x2="34.75" y2="26.5"/><line class="cls-1" x1="38.75" y1="25.5" x2="38.75" y2="26.5"/><line class="cls-1" x1="42.75" y1="25.5" x2="42.75" y2="26.5"/><line class="cls-1" x1="46.75" y1="25.5" x2="46.75" y2="26.5"/><path class="cls-1" d="M50.33,52.25H41.87a2.15,2.15,0,0,1-2.12-2.15V43.75h12.7V50.1A2.15,2.15,0,0,1,50.33,52.25Z"/><path class="cls-1" d="M41.75,43.28V41a4.25,4.25,0,0,1,8.5,0v2.28"/></svg>