<svg id="Layer_1" data-name="Layer 1" xmlns="http://www.w3.org/2000/svg" viewBox="0 0 64 64"><defs><style>.cls-1{fill:none;stroke:#38383b;stroke-linecap:round;stroke-linejoin:round;stroke-width:1.5px;}</style></defs><title>icon-delivery</title><circle class="cls-1" cx="19.75" cy="47.75" r="4"/><circle class="cls-1" cx="44.25" cy="47.75" r="4"/><path class="cls-1" d="M50.75,47.75h2.5a1,1,0,0,0,1-1V34.67a6,6,0,0,0-3.6-5.49l-12.4-5.43"/><line class="cls-1" x1="37.25" y1="47.75" x2="26.75" y2="47.75"/><path class="cls-1" d="M13.25,47.75h-1.5a2,2,0,0,1-2-2v-31a2,2,0,0,1,2-2h24.5a2,2,0,0,1,2,2v27"/><line class="cls-1" x1="9.75" y1="37.75" x2="37.75" y2="37.75"/></svg>