<svg id="Layer_1" data-name="Layer 1" xmlns="http://www.w3.org/2000/svg" viewBox="0 0 50 50"><defs><style>.cls-1{fill:#38383b;}</style></defs><title>Durable-gray</title><path class="cls-1" d="M40.87,2A7.14,7.14,0,0,1,48,9.13V40.87A7.14,7.14,0,0,1,40.87,48H9.13A7.14,7.14,0,0,1,2,40.87V9.13A7.14,7.14,0,0,1,9.13,2H40.87m0-2H9.13A9.13,9.13,0,0,0,0,9.13V40.87A9.13,9.13,0,0,0,9.13,50H40.87A9.13,9.13,0,0,0,50,40.87V9.13A9.13,9.13,0,0,0,40.87,0Z"/><path class="cls-1" d="M40.71,0H9.29A9.3,9.3,0,0,0,0,9.29V40.71A9.3,9.3,0,0,0,9.29,50H40.71A9.3,9.3,0,0,0,50,40.71V9.29A9.3,9.3,0,0,0,40.71,0ZM9.29,48.36a7.67,7.67,0,0,1-7.65-7.65V9.29A7.67,7.67,0,0,1,9.29,1.64H40.71a7.67,7.67,0,0,1,7.65,7.65V40.71a7.67,7.67,0,0,1-7.65,7.65Z"/><path class="cls-1" d="M20.53,33.94a.82.82,0,0,1-.66-.33l-6.09-8.12a.82.82,0,0,1,.15-1.13l10.15-8.12a.78.78,0,0,1,.51-.18.84.84,0,0,1,.44.13.8.8,0,0,1,.35.89l-.81,3.27,2.28-1.08a.85.85,0,0,1,.35-.08.83.83,0,0,1,.52.19.85.85,0,0,1,.28.83l0,.11,2.28-1.08a.82.82,0,0,1,.35-.08.78.78,0,0,1,.52.19.81.81,0,0,1,.27.84l0,.11,2.25-1.06a.78.78,0,0,1,.35-.08.79.79,0,0,1,.51.18.83.83,0,0,1,.28.82l-2.1,9a.82.82,0,0,1-.8.63l-9.66,0-.86,3.52a.84.84,0,0,1-.63.6Zm-.38-2.69.6-2.46a.82.82,0,0,1,.79-.62l9.66,0,1.57-6.68-2.3,1.09a.85.85,0,0,1-.35.08.79.79,0,0,1-.53-.2.82.82,0,0,1-.27-.83l0-.12-2.24,1.07a.84.84,0,0,1-.35.07.8.8,0,0,1-.52-.18A.83.83,0,0,1,26,21.6l0-.11-2.28,1.08a.69.69,0,0,1-.35.08.8.8,0,0,1-.79-1L23.21,19l-7.64,6.11Z"/></svg>