<svg id="Layer_1" data-name="Layer 1" xmlns="http://www.w3.org/2000/svg" viewBox="0 0 50 50"><title>SunProof4-gray</title><path class="cls-1" d="M40.87,2A7.14,7.14,0,0,1,48,9.13V40.87A7.14,7.14,0,0,1,40.87,48H9.13A7.14,7.14,0,0,1,2,40.87V9.13A7.14,7.14,0,0,1,9.13,2H40.87m0-2H9.13A9.13,9.13,0,0,0,0,9.13V40.87A9.13,9.13,0,0,0,9.13,50H40.87A9.13,9.13,0,0,0,50,40.87V9.13A9.13,9.13,0,0,0,40.87,0Z"/><path class="cls-1" d="M25,44.24a.94.94,0,0,1-.94-.94V40a.94.94,0,1,1,1.88,0V43.3A.94.94,0,0,1,25,44.24Zm7-1.39a1,1,0,0,1-.87-.58L29.86,39.2a.9.9,0,0,1,0-.72.93.93,0,0,1,.51-.52,1,1,0,0,1,.36-.07.94.94,0,0,1,.87.58l1.27,3.07a1,1,0,0,1-.51,1.24A1,1,0,0,1,32,42.85Zm-14,0a1.1,1.1,0,0,1-.36-.07,1,1,0,0,1-.51-1.24l1.27-3.07a.94.94,0,0,1,.87-.58.86.86,0,0,1,.36.07.94.94,0,0,1,.51,1.23l-1.27,3.08A1,1,0,0,1,18,42.85Zm19.94-4a.93.93,0,0,1-.67-.28l-2.35-2.34a1,1,0,0,1-.28-.67.95.95,0,0,1,1.62-.67l2.34,2.35a.93.93,0,0,1,.28.67,1,1,0,0,1-.94.94Zm-25.88,0a.95.95,0,0,1-.67-1.61l2.36-2.35a.91.91,0,0,1,.66-.28.95.95,0,0,1,.67,1.62L12.73,38.6A1,1,0,0,1,12.06,38.88ZM25,38.16A13.16,13.16,0,1,1,38.16,25,13.17,13.17,0,0,1,25,38.16Zm0-24.68A11.52,11.52,0,1,0,36.52,25,11.54,11.54,0,0,0,25,13.48ZM41.9,32.94a.92.92,0,0,1-.36-.07L38.47,31.6a.94.94,0,0,1-.51-.51,1,1,0,0,1,0-.72.94.94,0,0,1,.88-.58.92.92,0,0,1,.36.07l3.07,1.27a.94.94,0,0,1,.51.51,1,1,0,0,1,0,.72A.94.94,0,0,1,41.9,32.94Zm-33.8,0a.92.92,0,0,1-.87-.58.9.9,0,0,1,0-.72.88.88,0,0,1,.51-.51l3.06-1.27a1,1,0,0,1,1.24.51,1,1,0,0,1,0,.72.94.94,0,0,1-.51.51L8.46,32.87A.89.89,0,0,1,8.1,32.94Zm31.87-7a.94.94,0,0,1,0-1.88H43.3a.94.94,0,1,1,0,1.88Zm-33.27,0a.94.94,0,1,1,0-1.88H10a.94.94,0,1,1,0,1.88Zm32.14-5.73a1,1,0,0,1-.88-.58.94.94,0,0,1,.51-1.23l3.07-1.27a.94.94,0,0,1,.36-.08.92.92,0,0,1,.87.59.9.9,0,0,1,0,.72.91.91,0,0,1-.51.51L39.2,20.14A.92.92,0,0,1,38.84,20.21Zm-27.67,0a.94.94,0,0,1-.37-.07L7.74,18.87a.91.91,0,0,1-.51-.51.9.9,0,0,1,0-.72.92.92,0,0,1,1.23-.51l3.07,1.27a.94.94,0,0,1-.36,1.81Zm24.42-4.86a.94.94,0,0,1-.67-.27,1,1,0,0,1-.28-.67,1,1,0,0,1,.28-.67l2.35-2.35a1,1,0,0,1,.67-.27.94.94,0,0,1,.66,1.61l-2.34,2.35A.94.94,0,0,1,35.59,15.35Zm-21.18,0a.91.91,0,0,1-.66-.27l-2.36-2.35a1,1,0,0,1,0-1.34,1,1,0,0,1,1.34,0l2.35,2.35a1,1,0,0,1,.28.67,1,1,0,0,1-.28.67A.94.94,0,0,1,14.41,15.35Zm16.32-3.24a1.1,1.1,0,0,1-.36-.07,1,1,0,0,1-.51-.51.93.93,0,0,1,0-.73l1.27-3.07A1,1,0,0,1,32,7.15a1,1,0,0,1,.36.07.91.91,0,0,1,.51.51.93.93,0,0,1,0,.73L31.6,11.53A1,1,0,0,1,30.73,12.11Zm-11.46,0a1,1,0,0,1-.87-.58L17.13,8.46a1,1,0,0,1,.51-1.24A1,1,0,0,1,18,7.15a1,1,0,0,1,.87.58l1.27,3.07A1,1,0,0,1,19.63,12,1.15,1.15,0,0,1,19.27,12.11ZM25,11a.94.94,0,0,1-.94-1V6.7a.94.94,0,1,1,1.88,0V10A.94.94,0,0,1,25,11Z"/><circle class="cls-1" cx="25" cy="25" r="9.5"/></svg>