<svg xmlns="http://www.w3.org/2000/svg" viewBox="0 0 50 50"><title>2F-gray-outline</title><g id="Icons"><path d="M34,32.87a.79.79,0,0,1-.79-.79v-1.8L32.07,31a.76.76,0,0,1-.42.12.8.8,0,0,1-.67-.37.79.79,0,0,1,.25-1.09l2-1.25v-3.2l-2.77,1.6-.09,2.36a.79.79,0,0,1-.78.77.81.81,0,0,1-.8-.82l.05-1.38-1.56.9a.74.74,0,0,1-.39.11.78.78,0,0,1-.68-.4.74.74,0,0,1-.08-.6.79.79,0,0,1,.36-.48l1.56-.9-1.21-.64a.79.79,0,0,1,.37-1.49.81.81,0,0,1,.37.09l2.09,1.11,2.77-1.6-2.77-1.6-2.09,1.11a.78.78,0,0,1-.37.09.8.8,0,0,1-.7-.42A.78.78,0,0,1,26.85,22l1.21-.65-1.56-.9a.79.79,0,0,1-.36-.48.74.74,0,0,1,.08-.6.78.78,0,0,1,.68-.4.77.77,0,0,1,.39.11l1.56.9-.05-1.38a.79.79,0,0,1,1.58-.05l.09,2.36,2.77,1.6v-3.2l-2-1.25a.79.79,0,0,1,.84-1.34l1.17.73v-1.8a.79.79,0,1,1,1.58,0v1.8L36,16.69a.75.75,0,0,1,.41-.12.81.81,0,0,1,.68.37.79.79,0,0,1,.09.6.73.73,0,0,1-.35.49l-2,1.25v3.2l2.77-1.6.08-2.36a.79.79,0,0,1,.79-.76A.76.76,0,0,1,39,18a.74.74,0,0,1,.22.56l0,1.38,1.56-.9a.8.8,0,0,1,.4-.11.78.78,0,0,1,.68.4.74.74,0,0,1,.08.6.77.77,0,0,1-.37.48l-1.56.9,1.22.65a.76.76,0,0,1,.38.46.83.83,0,0,1-.05.6.8.8,0,0,1-.7.42.75.75,0,0,1-.37-.09l-2.09-1.11-2.77,1.6,2.77,1.6,2.09-1.11a.78.78,0,0,1,.37-.09.8.8,0,0,1,.7.42.8.8,0,0,1-.33,1.07L40,26.38l1.56.9a.79.79,0,0,1,.29,1.08.78.78,0,0,1-.68.4.8.8,0,0,1-.4-.11l-1.56-.9,0,1.38a.79.79,0,1,1-1.58.05l-.08-2.36-2.77-1.6v3.2l2,1.25a.79.79,0,0,1,.26,1.09.81.81,0,0,1-.68.37A.79.79,0,0,1,36,31l-1.16-.73v1.8A.79.79,0,0,1,34,32.87ZM16,32.87a.79.79,0,0,1-.79-.79v-1.8L14,31a.76.76,0,0,1-.42.12.77.77,0,0,1-.66-.37.79.79,0,0,1-.11-.6.81.81,0,0,1,.36-.49l2-1.25v-3.2l-2.77,1.6-.08,2.36a.79.79,0,0,1-.79.77.8.8,0,0,1-.79-.82l.05-1.38-1.56.9a.8.8,0,0,1-.4.11.78.78,0,0,1-.68-.4.74.74,0,0,1-.08-.6.77.77,0,0,1,.37-.48l1.56-.9-1.22-.64a.83.83,0,0,1-.39-.47.79.79,0,0,1,.06-.6.8.8,0,0,1,.7-.42.81.81,0,0,1,.37.09l2.09,1.11,2.77-1.6-2.77-1.6L9.53,23.36a.78.78,0,0,1-.37.09.8.8,0,0,1-.7-.42.74.74,0,0,1-.05-.6A.77.77,0,0,1,8.79,22L10,21.32l-1.56-.9a.8.8,0,0,1-.37-.48.75.75,0,0,1,.08-.6.78.78,0,0,1,.68-.4.8.8,0,0,1,.4.11l1.56.9-.05-1.38a.79.79,0,0,1,.76-.81.81.81,0,0,1,.82.76l.08,2.36,2.77,1.6v-3.2l-2-1.25a.81.81,0,0,1-.36-.49.84.84,0,0,1,.1-.6.8.8,0,0,1,.67-.37.76.76,0,0,1,.42.12l1.17.73v-1.8a.79.79,0,1,1,1.58,0v1.8l1.17-.73a.75.75,0,0,1,.41-.12.81.81,0,0,1,.68.37.84.84,0,0,1,.1.6.81.81,0,0,1-.36.49l-2,1.25v3.2l2.77-1.6.08-2.36a.81.81,0,0,1,.81-.76A.75.75,0,0,1,21,18a.77.77,0,0,1,.21.56L21.14,20l1.56-.9a.8.8,0,0,1,.4-.11.78.78,0,0,1,.68.4.74.74,0,0,1,.08.6.77.77,0,0,1-.37.48l-1.56.9,1.22.65a.79.79,0,0,1-.74,1.39l-2.09-1.11-2.77,1.6,2.77,1.6,2.09-1.11a.81.81,0,0,1,.37-.09.79.79,0,0,1,.37,1.49l-1.22.64,1.56.9a.77.77,0,0,1,.37.48.74.74,0,0,1-.08.6.78.78,0,0,1-.68.4.8.8,0,0,1-.4-.11l-1.56-.9.05,1.38a.79.79,0,0,1-.76.82.8.8,0,0,1-.82-.77l-.08-2.36-2.77-1.6v3.2l2,1.25a.81.81,0,0,1,.36.49.79.79,0,0,1-.11.6.77.77,0,0,1-.66.37.79.79,0,0,1-.42-.12l-1.17-.73v1.8A.79.79,0,0,1,16,32.87Z" style="fill:#38383b"/></g><g id="Outline"><path d="M40.87,2A7.14,7.14,0,0,1,48,9.13V40.87A7.14,7.14,0,0,1,40.87,48H9.13A7.14,7.14,0,0,1,2,40.87V9.13A7.14,7.14,0,0,1,9.13,2H40.87m0-2H9.13A9.13,9.13,0,0,0,0,9.13V40.87A9.13,9.13,0,0,0,9.13,50H40.87A9.13,9.13,0,0,0,50,40.87V9.13A9.13,9.13,0,0,0,40.87,0Z" style="fill:#38383b"/></g></svg>