<svg xmlns="http://www.w3.org/2000/svg" viewBox="0 0 50 50"><title>1Drop-gray-outline</title><g id="Icons"><path d="M24.3,32.14a5.31,5.31,0,0,1-2-.41,5.25,5.25,0,0,1-2.87-2.87,5.32,5.32,0,0,1,0-4.07c1.05-2.54,7.54-6.62,7.82-6.8a.9.9,0,0,1,.45-.13.88.88,0,0,1,.32.07.85.85,0,0,1,.5.59c.08.32,1.77,7.83.72,10.34A5.29,5.29,0,0,1,24.3,32.14Zm2.79-12c-2.53,1.7-5.62,4.09-6.14,5.35a3.62,3.62,0,0,0,2,4.73,3.52,3.52,0,0,0,1.39.28,3.6,3.6,0,0,0,3.34-2.24C28.17,27,27.67,23.07,27.09,20.09Z" style="fill:#38383b"/></g><g id="Outline"><path d="M40.87,2A7.14,7.14,0,0,1,48,9.13V40.87A7.14,7.14,0,0,1,40.87,48H9.13A7.14,7.14,0,0,1,2,40.87V9.13A7.14,7.14,0,0,1,9.13,2H40.87m0-2H9.13A9.13,9.13,0,0,0,0,9.13V40.87A9.13,9.13,0,0,0,9.13,50H40.87A9.13,9.13,0,0,0,50,40.87V9.13A9.13,9.13,0,0,0,40.87,0Z" style="fill:#38383b"/></g></svg>