<svg xmlns="http://www.w3.org/2000/svg" viewBox="0 0 50 50"><title>3Drop-gray-outline</title><g id="Icons"><path d="M20,39.28a5.44,5.44,0,0,1-2-.4,5.33,5.33,0,0,1-2.88-7c1-2.35,6.67-6.06,7.81-6.78a.78.78,0,0,1,.46-.14.87.87,0,0,1,.32.06.84.84,0,0,1,.5.6c.19.79,1.75,7.87.73,10.33A5.3,5.3,0,0,1,20,39.28Zm2.79-12c-2.52,1.69-5.62,4.08-6.14,5.34a3.62,3.62,0,0,0,2,4.73,3.52,3.52,0,0,0,1.39.28,3.63,3.63,0,0,0,3.35-2.24C23.88,34.09,23.39,30.21,22.8,27.24Z" style="fill:#38383b"/><path d="M31.07,29.66a5.31,5.31,0,0,1-2-.41,5.31,5.31,0,0,1-2.87-6.94c1-2.47,7.13-6.36,7.82-6.8a.81.81,0,0,1,.77-.06.83.83,0,0,1,.5.59c.18.8,1.74,7.88.73,10.34A5.31,5.31,0,0,1,31.07,29.66Zm2.79-12C31.33,19.3,28.24,21.7,27.72,23a3.63,3.63,0,0,0,2,4.74,3.71,3.71,0,0,0,1.39.28,3.63,3.63,0,0,0,3.35-2.24C34.94,24.47,34.44,20.59,33.86,17.61Z" style="fill:#38383b"/><path d="M19,24.66a5.32,5.32,0,0,1-4.91-7.35c1-2.52,7.54-6.62,7.82-6.8a.9.9,0,0,1,.45-.13.88.88,0,0,1,.32.07.85.85,0,0,1,.5.59c.18.8,1.75,7.87.72,10.33A5.27,5.27,0,0,1,19,24.66Zm2.79-12C19.26,14.3,16.17,16.7,15.65,18a3.62,3.62,0,0,0,2,4.73A3.71,3.71,0,0,0,19,23a3.6,3.6,0,0,0,3.34-2.24C22.87,19.47,22.37,15.59,21.79,12.61Z" style="fill:#38383b"/></g><g id="Outline"><path d="M40.87,2A7.14,7.14,0,0,1,48,9.13V40.87A7.14,7.14,0,0,1,40.87,48H9.13A7.14,7.14,0,0,1,2,40.87V9.13A7.14,7.14,0,0,1,9.13,2H40.87m0-2H9.13A9.13,9.13,0,0,0,0,9.13V40.87A9.13,9.13,0,0,0,9.13,50H40.87A9.13,9.13,0,0,0,50,40.87V9.13A9.13,9.13,0,0,0,40.87,0Z" style="fill:#38383b"/></g></svg>