<svg id="Layer_1" data-name="Layer 1" xmlns="http://www.w3.org/2000/svg" viewBox="0 0 50 50"><defs><style>.cls-1{fill:#38383b;}</style></defs><title>3A-gray</title><path class="cls-1" d="M33.38,39.86a.82.82,0,0,1-.82-.82V33.66a.82.82,0,1,1,1.64,0V39A.82.82,0,0,1,33.38,39.86Zm-8.76,0a.82.82,0,0,1-.81-.82V33.66a.82.82,0,0,1,.81-.82.82.82,0,0,1,.82.82V39A.82.82,0,0,1,24.62,39.86Zm-8.75,0a.82.82,0,0,1-.82-.82V33.66a.82.82,0,0,1,.82-.82.82.82,0,0,1,.81.82V39A.82.82,0,0,1,15.87,39.86Zm-5.54-8a.81.81,0,0,1-.81-.81.82.82,0,0,1,.81-.82H39.67a.82.82,0,0,1,.81.82.81.81,0,0,1-.81.81Zm23.05-2.66a.82.82,0,0,1-.82-.82V27a4.79,4.79,0,0,1,1.82-3.84,5.06,5.06,0,0,0,.77-.85,2.18,2.18,0,0,0,.35-1.16,2.44,2.44,0,0,0-.35-1.24,5.16,5.16,0,0,0-.75-.83,4.83,4.83,0,0,1-1.84-3.86V12.93l-1.42,1.43A.82.82,0,0,1,30,13.2l2.82-2.82a.82.82,0,0,1,.58-.23.79.79,0,0,1,.57.23l2.83,2.82a.82.82,0,0,1,0,1.16.82.82,0,0,1-1.16,0L34.2,12.93v2.32a3.22,3.22,0,0,0,1.3,2.66,6,6,0,0,1,1,1.17,4.07,4.07,0,0,1,.6,2.1,3.78,3.78,0,0,1-.6,2,6.06,6.06,0,0,1-1,1.16A3.2,3.2,0,0,0,34.2,27v1.36A.82.82,0,0,1,33.38,29.21Zm-8.76,0a.82.82,0,0,1-.81-.82V27a4.82,4.82,0,0,1,1.81-3.84,4.29,4.29,0,0,0,.77-.85,2.12,2.12,0,0,0,.35-1.16,2.47,2.47,0,0,0-.35-1.24,5.11,5.11,0,0,0-.75-.83,4.76,4.76,0,0,1-1.83-3.86V12.93l-1.43,1.43a.82.82,0,0,1-1.16,0,.85.85,0,0,1,0-1.16l2.83-2.82a.81.81,0,0,1,1.15,0L28,13.2a.82.82,0,0,1,0,1.16.81.81,0,0,1-1.15,0l-1.43-1.43v2.32a3.21,3.21,0,0,0,1.3,2.66,5.39,5.39,0,0,1,1,1.17,4,4,0,0,1,.6,2.1,3.72,3.72,0,0,1-.6,2,5.83,5.83,0,0,1-1,1.17A3.23,3.23,0,0,0,25.44,27v1.36A.82.82,0,0,1,24.62,29.21Zm-8.75,0a.82.82,0,0,1-.82-.82V27a4.82,4.82,0,0,1,1.81-3.84,4.67,4.67,0,0,0,.77-.85A2.13,2.13,0,0,0,18,21.18a2.36,2.36,0,0,0-.36-1.24,4.9,4.9,0,0,0-.76-.85,4.81,4.81,0,0,1-1.82-3.84V12.93l-1.43,1.43a.81.81,0,0,1-1.15,0,.82.82,0,0,1,0-1.16l2.82-2.82a.84.84,0,0,1,.58-.24.8.8,0,0,1,.57.24l2.83,2.82a.82.82,0,0,1-1.16,1.16l-1.43-1.43v2.32A3.25,3.25,0,0,0,18,17.91a5.91,5.91,0,0,1,1,1.17,4.07,4.07,0,0,1,.6,2.1,3.87,3.87,0,0,1-.6,2,6.21,6.21,0,0,1-1,1.16A3.23,3.23,0,0,0,16.68,27v1.36A.82.82,0,0,1,15.87,29.21Z"/><path class="cls-1" d="M40.87,2A7.14,7.14,0,0,1,48,9.13V40.87A7.14,7.14,0,0,1,40.87,48H9.13A7.14,7.14,0,0,1,2,40.87V9.13A7.14,7.14,0,0,1,9.13,2H40.87m0-2H9.13A9.13,9.13,0,0,0,0,9.13V40.87A9.13,9.13,0,0,0,9.13,50H40.87A9.13,9.13,0,0,0,50,40.87V9.13A9.13,9.13,0,0,0,40.87,0Z"/></svg>