<svg id="Layer_1" data-name="Layer 1" xmlns="http://www.w3.org/2000/svg" viewBox="0 0 50 50"><defs><style>.cls-1{fill:#ff5c38;}</style></defs><title>1A</title><path class="cls-1" d="M40.87,2A7.14,7.14,0,0,1,48,9.13V40.87A7.14,7.14,0,0,1,40.87,48H9.13A7.14,7.14,0,0,1,2,40.87V9.13A7.14,7.14,0,0,1,9.13,2H40.87m0-2H9.13A9.13,9.13,0,0,0,0,9.13V40.87A9.13,9.13,0,0,0,9.13,50H40.87A9.13,9.13,0,0,0,50,40.87V9.13A9.13,9.13,0,0,0,40.87,0Z"/><path class="cls-1" d="M24.94,39.86a.82.82,0,0,1-.81-.82V33.66a.82.82,0,0,1,.81-.82.82.82,0,0,1,.82.82V39A.82.82,0,0,1,24.94,39.86Zm0-10.65a.82.82,0,0,1-.81-.82V27a4.82,4.82,0,0,1,1.81-3.84,5,5,0,0,0,.77-.85,2.12,2.12,0,0,0,.35-1.16,2.44,2.44,0,0,0-.35-1.24,5.11,5.11,0,0,0-.75-.83,4.78,4.78,0,0,1-1.83-3.86V12.93L22.7,14.36a.82.82,0,0,1-1.16-1.16l2.83-2.82a.81.81,0,0,1,1.15,0l2.82,2.82a.82.82,0,0,1,0,1.16.81.81,0,0,1-1.15,0l-1.43-1.43v2.32a3.22,3.22,0,0,0,1.3,2.66,5.39,5.39,0,0,1,1,1.17,4,4,0,0,1,.6,2.1,3.72,3.72,0,0,1-.6,2,5.83,5.83,0,0,1-1,1.17A3.23,3.23,0,0,0,25.76,27v1.36A.82.82,0,0,1,24.94,29.21Z"/><path class="cls-1" d="M10.33,31.87a.81.81,0,0,1-.81-.81.82.82,0,0,1,.81-.82H39.67a.82.82,0,0,1,.81.82.81.81,0,0,1-.81.81Z"/></svg>