<svg id="Layer_1" data-name="Layer 1" xmlns="http://www.w3.org/2000/svg" viewBox="0 0 50 50"><defs><style>.cls-1{fill:#38383b;}</style></defs><title>VeryDurable-gray</title><path class="cls-1" d="M40.87,2A7.14,7.14,0,0,1,48,9.13V40.87A7.14,7.14,0,0,1,40.87,48H9.13A7.14,7.14,0,0,1,2,40.87V9.13A7.14,7.14,0,0,1,9.13,2H40.87m0-2H9.13A9.13,9.13,0,0,0,0,9.13V40.87A9.13,9.13,0,0,0,9.13,50H40.87A9.13,9.13,0,0,0,50,40.87V9.13A9.13,9.13,0,0,0,40.87,0Z"/><path class="cls-1" d="M40.71,0H9.29A9.3,9.3,0,0,0,0,9.29V40.71A9.3,9.3,0,0,0,9.29,50H40.71A9.3,9.3,0,0,0,50,40.71V9.29A9.3,9.3,0,0,0,40.71,0ZM9.29,48.36a7.67,7.67,0,0,1-7.65-7.65V9.29A7.67,7.67,0,0,1,9.29,1.64H40.71a7.67,7.67,0,0,1,7.65,7.65V40.71a7.67,7.67,0,0,1-7.65,7.65Z"/><path class="cls-1" d="M15.6,40.58a.82.82,0,0,1-.65-.33l-6.1-8.12A.82.82,0,0,1,9,31l10.15-8.12a.79.79,0,0,1,.51-.18.81.81,0,0,1,.8,1L19.64,27l2.28-1.08a.85.85,0,0,1,.35-.08.8.8,0,0,1,.52.18.86.86,0,0,1,.28.84l0,.1,2.28-1.08a.78.78,0,0,1,.35-.08.83.83,0,0,1,.52.19.82.82,0,0,1,.27.84l0,.12,2.24-1.07a.86.86,0,0,1,.36-.08.88.88,0,0,1,.51.18.82.82,0,0,1,.28.83l-2.1,9a.82.82,0,0,1-.8.63l-9.66,0L16.4,40a.85.85,0,0,1-.64.61Zm-.38-2.7.61-2.45a.81.81,0,0,1,.79-.63l9.65,0,1.57-6.69-2.3,1.09a.85.85,0,0,1-.35.08.82.82,0,0,1-.8-1l0-.11-2.24,1.06a.85.85,0,0,1-.35.08.86.86,0,0,1-.52-.18.82.82,0,0,1-.28-.84l0-.1-2.28,1.08a.85.85,0,0,1-.35.08.83.83,0,0,1-.52-.19.81.81,0,0,1-.27-.83l.64-2.6-7.64,6.11ZM32.16,27.3a.76.76,0,0,1-.44-.13.81.81,0,0,1-.36-.88L32.18,23,29.9,24.09a.85.85,0,0,1-.35.08A.81.81,0,0,1,29,24a.83.83,0,0,1-.28-.83l0-.1L26.5,24.13a.85.85,0,0,1-.35.08.82.82,0,0,1-.79-1l0-.11-2.24,1.06a.85.85,0,0,1-.35.08.88.88,0,0,1-.52-.18A.85.85,0,0,1,22,23.2l2.1-9a.82.82,0,0,1,.8-.63l9.66,0,.86-3.51a.85.85,0,0,1,.63-.61l.17,0a.82.82,0,0,1,.66.33L43,17.87A.82.82,0,0,1,42.82,19L32.67,27.12A.78.78,0,0,1,32.16,27.3Zm1.23-6.59a.83.83,0,0,1,.52.19.82.82,0,0,1,.27.83l-.64,2.6,7.64-6.11-4.58-6.1L36,14.58a.83.83,0,0,1-.8.62l-9.65,0L24,21.92l2.3-1.09a.85.85,0,0,1,.35-.08.82.82,0,0,1,.8,1l0,.11,2.24-1.06a.85.85,0,0,1,.35-.08.86.86,0,0,1,.52.18.84.84,0,0,1,.28.84l0,.1L33,20.79A.85.85,0,0,1,33.39,20.71Z"/></svg>