<svg id="Layer_1" data-name="Layer 1" xmlns="http://www.w3.org/2000/svg" viewBox="0 0 50 50"><defs><style>.cls-1{fill:#38383b;}</style></defs><title>ExtremelyDurable-gray</title><path class="cls-1" d="M40.87,2A7.14,7.14,0,0,1,48,9.13V40.87A7.14,7.14,0,0,1,40.87,48H9.13A7.14,7.14,0,0,1,2,40.87V9.13A7.14,7.14,0,0,1,9.13,2H40.87m0-2H9.13A9.13,9.13,0,0,0,0,9.13V40.87A9.13,9.13,0,0,0,9.13,50H40.87A9.13,9.13,0,0,0,50,40.87V9.13A9.13,9.13,0,0,0,40.87,0Z"/><path class="cls-1" d="M40.71,0H9.29A9.3,9.3,0,0,0,0,9.29V40.71A9.3,9.3,0,0,0,9.29,50H40.71A9.3,9.3,0,0,0,50,40.71V9.29A9.3,9.3,0,0,0,40.71,0ZM9.29,48.36a7.67,7.67,0,0,1-7.65-7.65V9.29A7.67,7.67,0,0,1,9.29,1.64H40.71a7.67,7.67,0,0,1,7.65,7.65V40.71a7.67,7.67,0,0,1-7.65,7.65Z"/><path class="cls-1" d="M15.6,41.48a.81.81,0,0,1-.65-.32L8.85,33A.82.82,0,0,1,9,31.91l10.15-8.12a.79.79,0,0,1,.51-.18.81.81,0,0,1,.8,1l-.82,3.28,2.28-1.08a.85.85,0,0,1,.35-.08.8.8,0,0,1,.52.18.85.85,0,0,1,.28.83l0,.11,2.28-1.08a.78.78,0,0,1,.35-.08.83.83,0,0,1,.52.19.82.82,0,0,1,.27.84l0,.12,2.24-1.07A.86.86,0,0,1,29,26.7a.88.88,0,0,1,.51.18.82.82,0,0,1,.28.83l-2.1,9a.82.82,0,0,1-.8.63l-9.66,0-.86,3.51a.85.85,0,0,1-.64.61Zm-.38-2.69.61-2.46a.81.81,0,0,1,.79-.62l9.65,0L27.84,29l-2.3,1.09a.82.82,0,0,1-.88-.11.83.83,0,0,1-.27-.84l0-.11-2.24,1.06a.85.85,0,0,1-.35.08.86.86,0,0,1-.52-.18.83.83,0,0,1-.28-.84l0-.1-2.28,1.08a.85.85,0,0,1-.35.08.83.83,0,0,1-.52-.19.81.81,0,0,1-.27-.83l.64-2.6-7.64,6.11ZM32.16,28.21a.76.76,0,0,1-.44-.13.81.81,0,0,1-.36-.88l.82-3.28L29.9,25a.85.85,0,0,1-.35.08.81.81,0,0,1-.52-.19.84.84,0,0,1-.28-.83l0-.1L26.5,25a.85.85,0,0,1-.35.08.77.77,0,0,1-.52-.2.82.82,0,0,1-.27-.83l0-.12L23.15,25a.85.85,0,0,1-.35.08.88.88,0,0,1-.52-.18.85.85,0,0,1-.28-.83l2.1-9a.82.82,0,0,1,.8-.63l9.66,0L35.42,11a.83.83,0,0,1,.63-.61l.17,0a.82.82,0,0,1,.66.33L43,18.78a.82.82,0,0,1-.15,1.13L32.67,28A.79.79,0,0,1,32.16,28.21Zm1.23-6.59a.83.83,0,0,1,.52.19.81.81,0,0,1,.27.83l-.64,2.6,7.64-6.11L36.6,13,36,15.49a.83.83,0,0,1-.8.62l-9.65,0L24,22.83l2.3-1.09a.85.85,0,0,1,.35-.08.82.82,0,0,1,.8,1l0,.11,2.24-1.06a.85.85,0,0,1,.35-.08.8.8,0,0,1,.52.18.84.84,0,0,1,.28.84l0,.1L33,21.7A.85.85,0,0,1,33.39,21.62Zm-19.71.52a.82.82,0,0,1-.82-.82V16.15H7.69a.82.82,0,1,1,0-1.64h5.17V9.33a.82.82,0,0,1,1.64,0v5.18h5.17a.82.82,0,1,1,0,1.64H14.5v5.17A.82.82,0,0,1,13.68,22.14Z"/></svg>