<svg xmlns="http://www.w3.org/2000/svg" viewBox="0 0 50 50"><title>3F-gray-outline</title><g id="Icons"><path d="M34,40.84a.79.79,0,0,1-.79-.79V38.24L32.07,39a.76.76,0,0,1-.42.12.79.79,0,0,1-.67-.36.8.8,0,0,1,.25-1.1l2-1.25v-3.2l-2.77,1.6-.09,2.36a.79.79,0,0,1-.79.77.82.82,0,0,1-.57-.25.77.77,0,0,1-.21-.57l0-1.38-1.55.9a.83.83,0,0,1-.4.11.79.79,0,0,1-.68-.39.8.8,0,0,1,.29-1.09l1.55-.89-1.21-.65a.8.8,0,0,1-.39-.47.79.79,0,0,1,.76-1,.81.81,0,0,1,.37.09l2.09,1.11,2.77-1.6-2.77-1.6-2.09,1.11a.79.79,0,1,1-.74-1.39l1.21-.65-1.55-.9a.77.77,0,0,1-.37-.48.74.74,0,0,1,.08-.6.79.79,0,0,1,.68-.39.76.76,0,0,1,.39.1l1.56.9,0-1.37A.75.75,0,0,1,29,26a.79.79,0,0,1,1.36.51l.09,2.36,2.77,1.6v-3.2l-2-1.25a.8.8,0,0,1-.35-.49.84.84,0,0,1,.1-.6.8.8,0,0,1,.67-.37.79.79,0,0,1,.42.12l1.17.73v-1.8a.79.79,0,0,1,1.58,0v1.8L36,24.65a.76.76,0,0,1,.42-.12.77.77,0,0,1,.66.37.75.75,0,0,1,.1.6.73.73,0,0,1-.35.49l-2,1.25v3.21l2.77-1.6.08-2.37a.79.79,0,1,1,1.58.06l0,1.37,1.56-.9a.81.81,0,0,1,1.08.29.74.74,0,0,1,.08.6.77.77,0,0,1-.37.48l-1.56.9,1.22.65a.79.79,0,0,1-.37,1.48.78.78,0,0,1-.37-.09l-2.09-1.11-2.77,1.6,2.77,1.6,2.09-1.11a.78.78,0,0,1,.37-.09.8.8,0,0,1,.7.42.8.8,0,0,1-.33,1.07L40,34.34l1.56.91a.73.73,0,0,1,.37.47.74.74,0,0,1-.08.6.78.78,0,0,1-.68.4.83.83,0,0,1-.4-.11l-1.56-.9,0,1.38a.81.81,0,0,1-.21.57.83.83,0,0,1-.55.25.8.8,0,0,1-.82-.76l-.08-2.37-2.77-1.6v3.2l2,1.25a.79.79,0,0,1,.26,1.09.81.81,0,0,1-.68.37A.75.75,0,0,1,36,39l-1.17-.73v1.81A.8.8,0,0,1,34,40.84ZM16,40.84a.8.8,0,0,1-.79-.79V38.24L14,39a.74.74,0,0,1-.42.12.79.79,0,0,1-.42-1.46l2-1.25v-3.2l-2.77,1.6-.08,2.36a.79.79,0,0,1-.79.77.83.83,0,0,1-.58-.26.77.77,0,0,1-.21-.56l.05-1.38-1.56.9a.8.8,0,0,1-.4.11.78.78,0,0,1-.68-.4.74.74,0,0,1-.08-.6.73.73,0,0,1,.37-.47l1.56-.9L8.79,33.7a.79.79,0,0,1,.37-1.49.81.81,0,0,1,.37.09l2.09,1.11,2.77-1.6-2.77-1.6L9.53,31.32a.79.79,0,0,1-1.13-.93.77.77,0,0,1,.39-.46L10,29.28l-1.56-.9A.79.79,0,0,1,9.24,27l1.56.9-.05-1.38a.78.78,0,0,1,.76-.81.8.8,0,0,1,.82.76l.08,2.36,2.77,1.61V27.24l-2-1.25a.79.79,0,0,1,.42-1.46.76.76,0,0,1,.42.12l1.17.73v-1.8a.79.79,0,0,1,1.58,0v1.8l1.17-.73a.76.76,0,0,1,.42-.12.79.79,0,0,1,.67.38.75.75,0,0,1,.09.59.73.73,0,0,1-.35.49l-2,1.25v3.2l2.77-1.6.08-2.36a.78.78,0,0,1,.79-.76A.79.79,0,0,1,21,26a.74.74,0,0,1,.22.56l0,1.38L22.7,27a.79.79,0,0,1,.79,1.37l-1.56.9,1.22.65a.81.81,0,0,1,.39.46.79.79,0,0,1-.76,1,.85.85,0,0,1-.38-.09l-2.08-1.11-2.77,1.6,2.77,1.6,2.09-1.11a.8.8,0,0,1,1.07.33.79.79,0,0,1,.06.6.8.8,0,0,1-.39.47l-1.22.64,1.56.91a.79.79,0,0,1-.39,1.47.77.77,0,0,1-.39-.11l-1.56-.9,0,1.38a.81.81,0,0,1-.21.57.83.83,0,0,1-.55.25.8.8,0,0,1-.82-.77l-.08-2.36-2.77-1.6v3.2l2,1.26A.78.78,0,0,1,19,38.72a.78.78,0,0,1-.67.37.87.87,0,0,1-.41-.11l-1.17-.73v1.8A.79.79,0,0,1,16,40.84ZM25,25a.79.79,0,0,1-.79-.79v-1.8L23,23.11a.86.86,0,0,1-.42.12.79.79,0,0,1-.42-1.46l2-1.26v-3.2l-2.77,1.6-.08,2.37a.79.79,0,0,1-1.58-.06l0-1.38-1.56.9a.77.77,0,0,1-.39.11.79.79,0,0,1-.4-1.47l1.56-.9-1.21-.65a.77.77,0,0,1-.38-.47.79.79,0,0,1,.06-.6.77.77,0,0,1,.69-.42.78.78,0,0,1,.37.09l2.09,1.11,2.77-1.6-2.77-1.6-2.09,1.11a.79.79,0,0,1-.37.1.82.82,0,0,1-.7-.42.83.83,0,0,1,0-.6.78.78,0,0,1,.38-.47L19,13.41l-1.57-.9a.74.74,0,0,1-.36-.48.78.78,0,0,1,.07-.6.82.82,0,0,1,.69-.39.76.76,0,0,1,.39.1l1.56.9,0-1.37a.79.79,0,0,1,.76-.82.81.81,0,0,1,.82.76L21.44,13l2.77,1.6v-3.2l-2-1.26a.79.79,0,0,1,.42-1.46.76.76,0,0,1,.42.12l1.17.73V7.71a.79.79,0,0,1,1.58,0v1.8L27,8.78a.75.75,0,0,1,.41-.12.79.79,0,0,1,.42,1.46l-2,1.26v3.2L28.56,13l.08-2.37a.77.77,0,0,1,.79-.76.82.82,0,0,1,.58.25.81.81,0,0,1,.21.57l0,1.38,1.57-.91a.76.76,0,0,1,.39-.1.79.79,0,0,1,.68.39.75.75,0,0,1,.08.6.72.72,0,0,1-.37.48l-1.56.9,1.22.65a.75.75,0,0,1,.38.46.81.81,0,0,1-.05.61.82.82,0,0,1-.7.42.86.86,0,0,1-.38-.1l-2.08-1.11-2.77,1.6,2.77,1.6,2.09-1.11a.78.78,0,0,1,.37-.09.8.8,0,0,1,.7.42.78.78,0,0,1,.05.6.77.77,0,0,1-.38.47L31,18.48l1.57.9a.74.74,0,0,1,.36.48.75.75,0,0,1-.08.6.78.78,0,0,1-.68.39.87.87,0,0,1-.39-.1l-1.57-.91,0,1.38a.79.79,0,1,1-1.58.05l-.08-2.36-2.77-1.6v3.2l2,1.26a.79.79,0,0,1-.42,1.46A.8.8,0,0,1,27,23.1l-1.16-.72v1.8A.8.8,0,0,1,25,25Z" style="fill:#38383b"/></g><g id="Outline"><path d="M40.87,2A7.14,7.14,0,0,1,48,9.13V40.87A7.14,7.14,0,0,1,40.87,48H9.13A7.14,7.14,0,0,1,2,40.87V9.13A7.14,7.14,0,0,1,9.13,2H40.87m0-2H9.13A9.13,9.13,0,0,0,0,9.13V40.87A9.13,9.13,0,0,0,9.13,50H40.87A9.13,9.13,0,0,0,50,40.87V9.13A9.13,9.13,0,0,0,40.87,0Z" style="fill:#38383b"/></g></svg>