<svg xmlns="http://www.w3.org/2000/svg" viewBox="0 0 50 50"><title>1F-gray-outline</title><g id="Icons"><path d="M25,34.17a.77.77,0,0,1-.77-.77v-2L23,32.27a.8.8,0,0,1-.42.13.76.76,0,0,1-.65-.37.78.78,0,0,1-.1-.58.8.8,0,0,1,.34-.48l2.1-1.31,0-3.45L21.29,28l-.05,2.42a.77.77,0,0,1-.77.74.76.76,0,0,1-.56-.24.79.79,0,0,1-.21-.55l.06-1.58-1.64,1.05a.83.83,0,0,1-.4.11.77.77,0,0,1-.66-.38A.72.72,0,0,1,17,29a.77.77,0,0,1,.36-.47l1.74-1L17.7,26.9a.77.77,0,0,1-.39-.46.78.78,0,0,1,.74-1,.77.77,0,0,1,.36.09l2.19,1.16,3-1.75-3-1.64-2.12,1.16a.74.74,0,0,1-1-.32.73.73,0,0,1-.06-.58.71.71,0,0,1,.38-.45l1.39-.75-1.73-.89A.74.74,0,0,1,17,21a.7.7,0,0,1,.08-.58.75.75,0,0,1,.66-.38.76.76,0,0,1,.39.1l1.73,1-.14-1.51a.81.81,0,0,1,.21-.56.76.76,0,0,1,1.33.49L21.33,22l3,1.7-.1-3.45L22.17,19a.77.77,0,0,1-.35-.48.81.81,0,0,1,.1-.59.78.78,0,0,1,.65-.36.73.73,0,0,1,.41.12l1.34.84-.09-1.95a.79.79,0,0,1,.23-.56.76.76,0,0,1,1.31.54v2L27,17.73a.72.72,0,0,1,.42-.13.78.78,0,0,1,.65.36.81.81,0,0,1,.1.59.77.77,0,0,1-.35.48l-2.09,1.31,0,3.44L28.7,22l.05-2.41a.77.77,0,0,1,1.34-.5.75.75,0,0,1,.2.55l-.05,1.58,1.64-1.05a.73.73,0,0,1,.4-.11.78.78,0,0,1,.67.38A.74.74,0,0,1,33,21a.72.72,0,0,1-.36.47l-1.74,1,1.38.63a.77.77,0,0,1,.39.46.78.78,0,0,1-.74,1,.78.78,0,0,1-.36-.1L29.41,23.3l-3,1.76,3,1.63,2.12-1.16a.74.74,0,0,1,.36-.09.78.78,0,0,1,.74,1,.74.74,0,0,1-.38.45l-1.39.74,1.73.9A.73.73,0,0,1,33,29a.76.76,0,0,1-.07.59.8.8,0,0,1-.67.38.76.76,0,0,1-.39-.1l-1.74-1,.14,1.51a.77.77,0,0,1-.2.57.73.73,0,0,1-.54.24.77.77,0,0,1-.79-.74L28.67,28l-3-1.7.1,3.45L27.83,31a.77.77,0,0,1,.35.48.78.78,0,0,1-.1.58.77.77,0,0,1-.65.37.73.73,0,0,1-.41-.12l-1.34-.84.09,1.95a.79.79,0,0,1-.23.56A.76.76,0,0,1,25,34.17Z" style="fill:#38383b"/></g><g id="Outline"><path d="M40.87,2A7.14,7.14,0,0,1,48,9.13V40.87A7.14,7.14,0,0,1,40.87,48H9.13A7.14,7.14,0,0,1,2,40.87V9.13A7.14,7.14,0,0,1,9.13,2H40.87m0-2H9.13A9.13,9.13,0,0,0,0,9.13V40.87A9.13,9.13,0,0,0,9.13,50H40.87A9.13,9.13,0,0,0,50,40.87V9.13A9.13,9.13,0,0,0,40.87,0Z" style="fill:#38383b"/></g></svg>