<svg xmlns="http://www.w3.org/2000/svg" viewBox="0 0 50 50"><title>2Drop-gray-outline</title><g id="Icons"><path d="M31,34.9a5.32,5.32,0,0,1-4.9-7.35c1-2.47,7.12-6.36,7.82-6.8a.9.9,0,0,1,.77-.06.83.83,0,0,1,.5.59c.18.8,1.73,7.89.72,10.34A5.29,5.29,0,0,1,31,34.9Zm2.79-12c-2.52,1.69-5.61,4.09-6.13,5.35a3.62,3.62,0,0,0,2,4.73,3.66,3.66,0,0,0,1.38.28A3.61,3.61,0,0,0,34.3,31C34.82,29.71,34.33,25.83,33.74,22.85Z" style="fill:#38383b"/><path d="M18.88,29.9a5.26,5.26,0,0,1-2-.41A5.31,5.31,0,0,1,14,26.61a5.25,5.25,0,0,1,0-4.06c1-2.44,7.12-6.36,7.81-6.8a.94.94,0,0,1,.46-.13.88.88,0,0,1,.32.07.85.85,0,0,1,.5.59c.18.8,1.73,7.9.72,10.33a5.29,5.29,0,0,1-4.91,3.29Zm2.79-12c-2.52,1.69-5.61,4.09-6.13,5.35a3.6,3.6,0,0,0,2,4.73,3.66,3.66,0,0,0,1.38.28A3.6,3.6,0,0,0,22.23,26C22.75,24.71,22.26,20.83,21.67,17.85Z" style="fill:#38383b"/></g><g id="Outline"><path d="M40.87,2A7.14,7.14,0,0,1,48,9.13V40.87A7.14,7.14,0,0,1,40.87,48H9.13A7.14,7.14,0,0,1,2,40.87V9.13A7.14,7.14,0,0,1,9.13,2H40.87m0-2H9.13A9.13,9.13,0,0,0,0,9.13V40.87A9.13,9.13,0,0,0,9.13,50H40.87A9.13,9.13,0,0,0,50,40.87V9.13A9.13,9.13,0,0,0,40.87,0Z" style="fill:#38383b"/></g></svg>