<svg xmlns="http://www.w3.org/2000/svg" viewBox="0 0 50 50"><title>4Drop-gray-outline</title><g id="Icons"><path d="M26.29,20.93c1-2.5-.56-9.72-.74-10.53a.84.84,0,0,0-.49-.58.87.87,0,0,0-.32-.06.86.86,0,0,0-.44.12c-.28.18-6.91,4.37-8,6.93a5.37,5.37,0,0,0,2.92,7,5.23,5.23,0,0,0,2.06.42A5.38,5.38,0,0,0,26.29,20.93Zm-5,1.68a3.74,3.74,0,0,1-3.45-5.17c.54-1.3,3.74-3.78,6.32-5.51.64,3.2,1.12,7.07.58,8.37A3.72,3.72,0,0,1,21.31,22.61Z" style="fill:#38383b"/><path d="M38.1,9.82a.87.87,0,0,0-.32-.06.86.86,0,0,0-.44.12c-.28.18-6.91,4.36-8,6.93a5.37,5.37,0,0,0,2.92,7,5.23,5.23,0,0,0,2.06.42,5.39,5.39,0,0,0,5-3.33c1-2.49-.56-9.71-.74-10.53A.82.82,0,0,0,38.1,9.82ZM37.8,20.3a3.73,3.73,0,0,1-3.45,2.31A3.76,3.76,0,0,1,30.9,20.3a3.64,3.64,0,0,1,0-2.86c.53-1.3,3.73-3.78,6.32-5.51C37.82,15,38.34,19,37.8,20.3Z" style="fill:#38383b"/><path d="M19,25.81a.79.79,0,0,0-.76.06c-.28.18-6.91,4.37-8,6.92a5.38,5.38,0,0,0,2.92,7,5.19,5.19,0,0,0,2.06.41,5.37,5.37,0,0,0,5-3.32c1-2.5-.56-9.72-.74-10.53A.84.84,0,0,0,19,25.81Zm-.3,10.48a3.74,3.74,0,1,1-6.9-2.87c.54-1.29,3.61-3.69,6.32-5.5C18.7,31,19.21,35,18.67,36.29Z" style="fill:#38383b"/><path d="M32,25.81a.92.92,0,0,0-.32-.07.84.84,0,0,0-.44.13c-.71.45-6.93,4.4-8,6.92a5.39,5.39,0,0,0,2.91,7,5.24,5.24,0,0,0,2.07.41,5.36,5.36,0,0,0,5-3.32c1-2.49-.55-9.71-.74-10.53A.81.81,0,0,0,32,25.81Zm-.3,10.48a3.72,3.72,0,0,1-3.45,2.3,3.77,3.77,0,0,1-1.44-.28,3.75,3.75,0,0,1-2-4.89c.53-1.29,3.73-3.77,6.32-5.5C31.73,31,32.24,35,31.71,36.29Z" style="fill:#38383b"/></g><g id="Outline"><path d="M40.87,2A7.14,7.14,0,0,1,48,9.13V40.87A7.14,7.14,0,0,1,40.87,48H9.13A7.14,7.14,0,0,1,2,40.87V9.13A7.14,7.14,0,0,1,9.13,2H40.87m0-2H9.13A9.13,9.13,0,0,0,0,9.13V40.87A9.13,9.13,0,0,0,9.13,50H40.87A9.13,9.13,0,0,0,50,40.87V9.13A9.13,9.13,0,0,0,40.87,0Z" style="fill:#38383b"/></g></svg>