<svg id="Layer_1" data-name="Layer 1"
    xmlns="http://www.w3.org/2000/svg" viewBox="0 0 100 100">
    <defs>
        <style>.cls-1{fill:#d2092d;}.cls-2{fill:#fff;}</style>
    </defs>
    <rect class="cls-1" x="0.22" y="0.11" width="99.78" height="99.78" rx="11.93"/>
    <path class="cls-2" d="M60.11,61.71l9.21,8.7-7.45,7.13L51.77,68l-10.1-9.5V74.89H31.24V41.13l0-.39v-.41l0-.41v-.38l0-.41.07-.39.05-.38.08-.39.08-.38.08-.4.09-.38.11-.36.09-.4.13-.37.41-1.1.15-.33.16-.37.16-.36.18-.33.19-.36.17-.32.2-.34.2-.33.22-.32.43-.64.46-.61.25-.3.24-.31.27-.29.26-.28.53-.55.29-.27.28-.26.29-.27.31-.24.3-.24L38.4,27l.3-.22.32-.24.33-.21.32-.22.35-.21.33-.2.34-.18.35-.19.37-.18.34-.19.37-.16.36-.13.4-.17.36-.15.78-.25L44.4,24l.39-.12.41-.09.38-.08.4-.11.41-.05.57-.12.56-.08.54-.05.56,0,.53,0,.53,0h1.56l.53,0,.49,0,.51.05.49.07.51.08.47.09.49.09.46.11.47.12.45.12.46.14.45.16.44.16.45.17.41.19.41.17.41.21.41.23.4.2.4.22.38.24.39.25.37.24.37.27.34.26.35.29.34.27.35.3.33.28.3.31.31.3.3.33.28.31.29.32.28.35.27.32.26.35.25.34.24.37.47.72.61,1.1.18.38.35.77.17.4.16.38.14.39.12.38.12.41.12.39.11.41.16.82.09.42,0,.4.07.41.08.8v.77l0,.39v.36l0,.39v.37l0,.37,0,.34,0,.37,0,.34-.12.7-.14.65-.16.65-.19.63-.22.59-.2.59-.25.57-.24.53-.27.53-.26.48-.27.48-.28.45-.29.42-.26.41-.28.36-.27.37-.26.33-.25.31-.24.28-.23.25-.41.42-.32.33-.25.23-.86.73-.29.22-.32.24-.61.45L54,49.07l.61-.44.59-.45.28-.24.29-.21.27-.25.25-.24.13-.15.16-.14.28-.31.25-.33.27-.32.22-.34.23-.35.21-.37.09-.18.08-.19.16-.36.16-.39.12-.4,0-.21.07-.2.08-.41v-.2l0-.23,0-.2V40.68l0-.2v-.21l-.2-1-.12-.4-.15-.38-.06-.19-.08-.17L58,37.75l-.18-.36-.2-.33-.23-.33-.25-.32-.25-.33-.27-.28-.29-.29-.3-.28L55.76,35l-.33-.25-.32-.23-.37-.21-.34-.21L54,33.92l-.37-.19-.38-.14-.81-.24-.21,0-.22,0-.43-.08-.2,0h-.23l-.2,0-.22,0h-.9l-.43,0-.42,0-.44.08-.2,0-.22,0-.4.12-.4.12-.41.14-.36.19-.21.08-.17.08-.2.1-.16.11-.37.21-.16.11-.65.49-.16.13-.29.28-.57.57-.49.65-.21.33-.21.33-.2.36-.33.73-.12.38-.12.4-.11.4,0,.41-.07.41,0,.2v.2l0,.43,0,.35,0,.34.07.33.12.48,0,.15.09.3.13.31.12.29.15.28.13.26.17.27.16.24.31.43.33.39.61.69.62.7.64.66.63.64.64.61.58.57,1,1L50.78,53l4,3.75Z"/>
</svg>