<?xml version="1.0" encoding="utf-8"?>
<!-- Generator: Adobe Illustrator 22.0.1, SVG Export Plug-In . SVG Version: 6.00 Build 0)  -->
<svg version="1.1" id="Layer_1" xmlns="http://www.w3.org/2000/svg" xmlns:xlink="http://www.w3.org/1999/xlink" x="0px" y="0px"
	 viewBox="0 0 180 180" style="enable-background:new 0 0 180 180;" xml:space="preserve">
<style type="text/css">
	.st0{fill:#D2092D;}
</style>
<path id="Combined-Shape" class="st0" d="M34,0h112c18.8,0,34,15.2,34,34v112c0,18.8-15.2,34-34,34H34c-18.8,0-34-15.2-34-34V34
	C0,15.2,15.2,0,34,0z M126.8,133.3l-18.2-17.9l-23.2-23c-2.4-2.4-6.2-6.2-9.4-10c-2.2-2.5-3.5-5.7-3.6-9.1c0.6-8.9,8-15.9,16.9-15.9
	s16.3,6.9,16.9,15.9c-0.1,4.6-1.9,9-5.2,12.2c-2.4,2.4-5,4.5-7.8,6.4l14.8,14c2.8-1.9,5.4-3.9,7.9-6.2c8.8-8.9,12.7-21.6,10.2-33.9
	c-2-9.8-7.8-18.3-16.1-23.8s-18.5-7.4-28.2-5.3C64.5,40.2,51.9,55.4,52,73.1c0,16.2,0,32.7,0,49v20.4h20.5v-33.7l39.7,39.2
	L126.8,133.3z"/>
</svg>
